<svg xmlns="http://www.w3.org/2000/svg" width="256" height="256"><path fill-opacity=".016" d="M0 128.004v128.004l128.25-.254 128.25-.254.254-127.75L257.008 0H0v128.004m.485.496c0 70.4.119 99.053.265 63.672.146-35.38.146-92.98 0-128C.604 29.153.485 58.1.485 128.5" fill="#136a8a" fill-rule="evenodd"/><path fill-opacity=".147" d="M56 34.953c-12.974 1.335-23.835 8.9-29.581 20.601-2.55 5.195-2.919 7.052-2.919 14.699v8.752l-4.72 1.568c-5.626 1.869-14.108 9.189-16.83 14.525C.434 98.07 0 100.972 0 108.144c0 11.226 1.838 15.727 9.084 22.242 7.568 6.804 11.195 7.668 34.938 8.328l20.523.571 1.738-5.393c3.441-10.678 12.904-20.099 23.562-23.455 3.821-1.203 7.556-1.555 13.1-1.234 6.597.382 8.767 1.005 14.525 4.17 3.723 2.046 6.828 3.587 6.9 3.424 3.471-7.913 8.148-15.386 12.149-19.413 5.915-5.953 14.245-10.999 19.672-11.916 2.095-.354 3.809-.999 3.809-1.433 0-1.05-9.349-5.035-11.813-5.035-2.444 0-3.533-1.434-5.007-6.6-1.722-6.033-7.164-12.529-13.288-15.862-6.569-3.575-18.444-4.597-26.037-2.239l-4.644 1.442-4.157-5.894C90.066 42.773 82.73 37.657 74.54 35.54c-6.258-1.617-7.998-1.672-18.54-.587m121.5 49.004c11.62 2.621 18.932 6.667 26.625 14.734 9.566 10.03 13.421 20.322 12.633 33.718-.262 4.45-.652 8.718-.867 9.484-.264.941 1.146 1.798 4.349 2.644 11.423 3.014 21.656 11.482 26.419 21.858 2.438 5.31 2.805 7.342 2.822 15.605.017 8.619-.275 10.121-3.155 16.201-5.465 11.534-14.016 18.389-27.326 21.906-5.667 1.497-6.037 1.728-2.886 1.805 15.085.367 30.279-8.888 37.284-22.711C255.773 194.514 256 193.014 256 182c0-10.993-.23-12.52-2.584-17.166-5.186-10.235-14.982-18.19-25.722-20.891-3.65-.918-4.664-1.578-4.217-2.743 1.342-3.498 1.663-13.093.624-18.663-2.786-14.941-13.308-28.409-27.434-35.118-6.12-2.907-8.936-3.634-15.332-3.962-6.3-.324-7.051-.226-3.835.5" fill="#136a8a" fill-rule="evenodd"/><path fill-opacity=".299" d="M69.921 36.643c9.238 3.234 16.743 9.901 20.966 18.624 2.234 4.614 2.299 4.657 4.689 3.091 3.115-2.041 3.051-3.192-.444-8.017-6.436-8.885-17.481-15.402-25.92-15.293l-3.712.047 4.421 1.548M120.5 55.792c8.568 4.089 16.407 13.999 16.478 20.83.017 1.677.817 2.249 3.808 2.728 2.083.333 6.02 1.738 8.75 3.123 4.963 2.518 9.464 3.303 9.464 1.65 0-1.152-9.276-5.123-11.967-5.123-1.153 0-2.257-.562-2.454-1.25-4.195-14.632-12.459-22.59-25.122-24.193l-4.957-.628 6 2.863m60.809 28.627c16.188 4.726 28.396 16.027 33.847 31.332 1.908 5.356 2.639 16.641 1.631 25.187-.247 2.102.248 2.552 3.595 3.262 10.626 2.255 21.461 11.166 26.508 21.8 2.298 4.843 2.61 6.753 2.61 16 0 9.28-.309 11.159-2.66 16.175-4.685 9.994-13.655 17.973-24.126 21.461l-4.214 1.404 5.439-.495c10.995-1.001 23.837-10.286 29.11-21.045 2.087-4.257 2.5-6.729 2.782-16.64.313-10.987.177-11.968-2.43-17.478-1.519-3.211-4.926-8.003-7.572-10.648-4.879-4.88-15.523-10.732-19.52-10.733-3.126-.001-3.545-1.275-2.419-7.364 1.342-7.258-.201-17.555-3.766-25.137-7.444-15.83-21.697-26.258-38.176-27.932l-5.448-.553 4.809 1.404" fill="#136a8a" fill-rule="evenodd"/><path fill-opacity=".254" d="M71.237 36.433c8.717 3.391 16.876 11.112 20.386 19.294 1.274 2.969 1.584 3.136 3.881 2.089C96.877 57.191 98 56.378 98 56.011c0-1.505-6.378-10.152-9.33-12.649-4.057-3.432-12.043-7.061-17.17-7.804l-4-.579 3.737 1.454m52.527 20.605c6.201 3.556 10.57 9.174 12.912 16.603 1.485 4.711 2.011 5.359 4.347 5.359 1.462 0 5.417 1.379 8.791 3.065 4.354 2.176 6.606 2.799 7.765 2.151 1.332-.745.908-1.204-2.298-2.487-2.162-.865-5.542-1.875-7.511-2.244-3.18-.597-3.697-1.136-4.632-4.828-1.369-5.406-6.096-12.779-9.953-15.525-3.286-2.34-10.42-5.138-13.061-5.123-.893.006.745 1.368 3.64 3.029m62.784 28.768c19.897 8.327 32.696 27.692 31.181 47.178-.279 3.584-.807 7.244-1.174 8.133-.528 1.281.332 1.869 4.139 2.826 11.595 2.916 23.226 13.021 27.361 23.772 2.886 7.503 3.141 19.527.573 27.047-3.44 10.076-13.201 20.262-23.285 24.3l-4.843 1.94 4-.581c10.727-1.557 23.161-10.96 28.282-21.388 2.295-4.672 2.77-7.089 3.05-15.533.276-8.335-.027-10.957-1.821-15.747-3.999-10.677-14.846-20.021-27.011-23.267-2.965-.791-4.384-1.675-4.16-2.593.187-.766.585-4.592.884-8.502.955-12.494-3.202-24.376-11.832-33.818-6.372-6.973-12.689-11.121-20.705-13.597-7.762-2.397-10.172-2.486-4.639-.17" fill="#136a8a" fill-rule="evenodd"/></svg>